Coordinates
version=1
nRows=15
nColumns=34
inDegrees=yes

Units are S.I. units (second, meters, Newtons, ...)
If the header above contains a line with 'inDegrees', this indicates whether rotational values are in degrees (yes) or radians (no).

endheader
time	pelvis_tilt	pelvis_list	pelvis_rotation	pelvis_tx	pelvis_ty	pelvis_tz	hip_flexion_r	hip_adduction_r	hip_rotation_r	knee_angle_r	ankle_angle_r	subtalar_angle_r	mtp_angle_r	hip_flexion_l	hip_adduction_l	hip_rotation_l	knee_angle_l	ankle_angle_l	subtalar_angle_l	mtp_angle_l	lumbar_extension	lumbar_bending	lumbar_rotation	arm_flex_r	arm_add_r	arm_rot_r	elbow_flex_r	pro_sup_r	arm_flex_l	arm_add_l	arm_rot_l	elbow_flex_l	pro_sup_l
      6.41666670	     -2.22240219	      1.65966535	    -21.58742523	     -1.90791449	      1.05936742	      0.15426237	     -4.04228010	      1.22241282	      4.57062283	      1.47366534	      6.59731780	     -7.00660990	      0.00000000	     17.52069561	     -2.75471587	      6.76684907	     16.91355408	      0.19442407	     -6.13045622	      0.00000000	      5.98534621	      6.18760063	     -5.35043914	    -15.89531118	     -0.19341206	    -29.34075219	     23.99933816	    111.50200609	     19.00728346	     -8.87672627	   -349.26101506	     42.56300322	    102.00512172
      6.43333330	     -2.01649510	      1.45028847	    -21.23204653	     -1.91088077	      1.05673069	      0.15422367	     -4.25882456	      1.52533970	      4.36669923	      1.31899315	      6.94165768	     -6.55471264	      0.00000000	     17.62954819	     -2.93545051	      6.75465481	     17.26031168	      0.19629730	     -6.00919603	      0.00000000	      5.52524552	      6.42403273	     -6.19994939	    -11.04381670	     -2.13534363	    -27.80408160	     22.31793627	    112.44740830	     19.43959110	     -9.79350048	   -347.59162301	     47.30216413	    102.28709400
      6.45000000	     -2.00729556	      1.21209390	    -20.82398265	     -1.91500698	      1.05558436	      0.15378034	     -4.27967822	      1.90065468	      4.26058505	      1.18507886	      7.41850405	     -6.26492230	      0.00000000	     18.14287060	     -3.18671627	      6.83252972	     17.91323327	      0.36182228	     -5.86319100	      0.00000000	      5.21881548	      6.85878969	     -6.58170644	     -6.73289646	     -4.01310465	    -26.46676527	     20.49937692	    113.18904520	     20.26143013	     -9.87118654	   -347.61675730	     51.22074900	    102.27198363
      6.46666670	     -2.01553091	      1.01983914	    -20.35097699	     -1.91838084	      1.05564925	      0.15387764	     -4.29835600	      2.21719682	      4.13594098	      1.02868995	      7.72945239	     -6.09161157	      0.00000000	     18.74095409	     -3.36884118	      7.02043773	     18.60705550	      0.57347181	     -5.77797398	      0.00000000	      4.87989646	      7.19064182	     -6.48268681	     -4.39838441	     -5.75573171	    -26.05912299	     20.54154249	    113.34795013	     21.42012526	     -9.58959432	   -347.54628691	     54.80353392	    102.40030825
      6.48333330	     -1.91943484	      0.88355446	    -19.90130142	     -1.91977502	      1.05667267	      0.15413371	     -4.43433916	      2.41733613	      3.87036406	      0.87244240	      8.05080220	     -5.87936188	      0.00000000	     19.17474253	     -3.44890427	      7.19680116	     19.21778759	      0.66356689	     -5.59610921	      0.00000000	      4.43699047	      7.50441655	     -6.51999049	     -3.06217276	     -7.49516705	    -26.25513399	     21.83838209	    113.22779612	     21.95192702	     -9.54016577	   -347.07091849	     58.92036277	    102.73539299
      6.50000000	     -1.74189958	      0.75914363	    -19.33385423	     -1.92014982	      1.05773445	      0.15380014	     -4.65639897	      2.57671011	      3.58850430	      0.84385324	      8.22303533	     -5.66217532	      0.00000000	     19.50276805	     -3.44828406	      7.40486655	     19.81539925	      0.69338946	     -5.39375814	      0.00000000	      4.11057838	      7.71962946	     -6.73534474	     -2.45738505	     -9.10410329	    -26.97586376	     24.79364745	    112.90532957	     22.16062328	     -9.51554597	   -346.41380691	     63.30325626	    103.26862437
      6.51666670	     -1.53950215	      0.61748681	    -18.76039829	     -1.92125269	      1.05931578	      0.15335486	     -4.93438597	      2.75020538	      3.22753588	      0.74447984	      8.30350679	     -5.60159798	      0.00000000	     19.73354491	     -3.42874267	      7.66930414	     20.31210981	      0.66631579	     -5.12212754	      0.00000000	      3.69741306	      7.97766478	     -6.88131411	     -2.03141225	    -10.33339737	    -28.21029954	     28.93265792	    112.46605692	     22.19688427	     -9.46123514	   -345.73032532	     67.16511527	    103.99777028
      6.53333330	     -1.24417274	      0.47769029	    -18.15095594	     -1.92318024	      1.06148088	      0.15329684	     -5.23211176	      2.89803371	      2.92916425	      0.77131275	      8.32046032	     -5.54637325	      0.00000000	     19.83841215	     -3.38347166	      7.80794930	     20.74462040	      0.51214611	     -4.90335362	      0.00000000	      3.27272106	      8.21531472	     -6.66565693	     -1.83318945	    -11.05620127	    -31.02577371	     34.07504245	    111.79139989	     22.36080062	     -8.79909618	   -345.36350352	     69.89684183	    105.56562266
      6.55000000	     -0.91764616	      0.41450777	    -17.31487070	     -1.92436455	      1.06285133	      0.15328100	     -5.82817683	      2.97981597	      2.54862169	      0.29314214	      8.08888877	     -5.55605813	      0.00000000	     19.88420705	     -3.19508519	      8.10438375	     21.06912262	      0.28238215	     -4.50136862	      0.00000000	      3.01243997	      8.15636950	     -6.58416842	     -1.44564301	    -12.23013293	    -31.52525202	     37.67355077	    111.56167672	     22.45733384	     -8.63259482	   -343.75082622	     72.23485370	    106.37993904
      6.56666670	     -0.76350878	      0.32169779	    -16.48414543	     -1.92483371	      1.06212160	      0.15308850	     -6.17079052	      3.13429010	      2.26125108	      0.00000000	      7.91791547	     -5.60791474	      0.00000000	     20.04851753	     -3.11380770	      8.33513437	     21.26460049	      0.01316470	     -4.15707190	      0.00000000	      3.12968276	      7.90985563	     -6.53371404	     -0.47408213	    -13.48965986	    -31.72830219	     38.89805909	    111.47317359	     22.39265040	     -7.65168931	   -343.11263198	     72.93186206	    106.52511396
      6.58333330	     -0.40355581	      0.22687640	    -15.66321838	     -1.92511351	      1.05987908	      0.15313575	     -6.62482910	      3.22523391	      1.78184598	      0.00000000	      7.96635527	     -5.52161433	      0.00000000	     19.93247559	     -2.97903990	      8.54350004	     21.38190557	      0.25401077	     -3.75181696	      0.00000000	      2.49274440	      7.91280497	     -5.74959843	     -1.67782291	    -14.21202161	    -32.87464342	     45.09636666	    110.18420819	     22.57017904	     -7.25584772	   -341.55734990	     75.51795236	    107.89794565
      6.60000000	     -0.24397985	      0.10965747	    -14.85165944	     -1.92561793	      1.05711117	      0.15347581	     -6.89323747	      3.41954044	      1.51944884	      0.00000000	      8.07567399	     -5.75777403	      0.00000000	     20.01508936	     -2.92918546	      8.82763205	     21.51705613	      0.44569713	     -3.29002239	      0.00000000	      2.49934008	      7.78292366	     -5.63124957	     -1.48778464	    -15.31936641	    -32.83558958	     47.23755684	    109.56523570	     22.39694721	     -7.18615971	   -339.76699477	     76.92682383	    108.40404808
      6.61666670	     -0.06589456	     -0.02858421	    -14.03631429	     -1.92671834	      1.05492424	      0.15373223	     -7.18614909	      3.65735188	      1.23715543	      0.00000000	      8.21636744	     -6.03222104	      0.00000000	     20.07482780	     -2.90588927	      9.10476631	     21.70197764	      0.76905397	     -2.96200761	      0.00000000	      2.48860855	      7.63781349	     -5.36936182	     -1.43571387	    -16.31828421	    -32.88993999	     49.12164718	    108.73686271	     22.02873056	     -6.85449905	   -338.41525902	     78.16040965	    108.70056908
      6.63333330	      0.11992983	     -0.05476240	    -13.37054847	     -1.92807501	      1.05360211	      0.15359661	     -7.43727444	      3.75128510	      1.07474045	      0.00000000	      8.40451762	     -6.23160148	      0.00000000	     20.05745788	     -2.78927396	      9.24889583	     21.81731705	      0.83679603	     -2.85756314	      0.00000000	      2.71736025	      7.35601296	     -5.02131324	     -0.66091630	    -17.21763312	    -33.07540242	     49.49841982	    108.64714270	     21.33388138	     -6.21578264	   -337.87486387	     78.32303383	    108.73183446
      6.65000000	      0.23743464	     -0.24540476	    -12.50279383	     -1.92948601	      1.05300652	      0.15307862	     -7.63799965	      4.10089905	      0.65060165	      0.00000000	      8.41201107	     -6.82182982	      0.00000000	     20.19748631	     -2.80363964	      9.69844063	     22.10109339	      1.32830734	     -2.42099666	      0.00000000	      2.65388302	      7.29500392	     -4.72388483	      0.20726046	    -17.83503097	    -33.72881001	     49.77548394	    107.57909039	     20.56392466	     -6.44167783	   -335.76345749	     79.98815501	    108.77649111
